<svg xmlns="http://www.w3.org/2000/svg" width="2299" height="991" viewBox="0 0 2299 991">
  <g id="footer" transform="translate(379 -8123)">
    <rect id="bg" width="1920" height="631" transform="translate(0 8123)" fill="#00152e"/>
    <rect id="overely" width="1920" height="631" transform="translate(0 8123)" fill="#00152e" opacity="0.902"/>
    <text id="Copyright_Mattin-Lassei_Group_AB_-_2022" data-name="Copyright © Mattin-Lassei Group AB - 2022" transform="translate(960 8730.154)" fill="#c2d1e2" font-size="16" font-family="SegoeUI, Segoe UI"><tspan x="-154.621" y="0">Copyright © Mattin-Lassei Group AB - 2022</tspan></text>
    <rect id="line" width="1170" height="1" transform="translate(375 8698)" fill="#fff" opacity="0.2"/>
    <g id="_3" data-name="3">
      <text id="For_more_then_15_years_IT_Service_has_been_a_reliable_partner_in_the_field_of_logistics_and_cargo_forwarding." data-name="For more then 15 years, IT Service has been a reliable partner in the field of logistics and cargo forwarding." transform="translate(1174.574 8442.441)" fill="#fff" font-size="16" font-family="SegoeUI, Segoe UI"><tspan x="0" y="17">For more then 15 years, </tspan><tspan y="17" fill="#c2d1e2">IT Service has been a </tspan><tspan x="0" y="43" fill="#c2d1e2">reliable partner in the field of logistics and </tspan><tspan x="0" y="69" fill="#c2d1e2">cargo forwarding.</tspan></text>
      <text id="Monday_-_Friday:_7:00_-_17:00_Saturday:_7:00_-_12:00_Sunday_and_holidays:_8:00_-_10:00" data-name="Monday - Friday: 7:00 - 17:00
Saturday: 7:00 - 12:00
Sunday and holidays: 8:00 - 10:00" transform="translate(1174.574 8331.027)" fill="#c2d1e2" font-size="20" font-family="SegoeUI, Segoe UI" opacity="0.8"><tspan x="0" y="0">Monday - Friday: 7:00 - 17:00</tspan><tspan x="0" y="36">Saturday: 7:00 - 12:00</tspan><tspan x="0" y="72">Sunday and holidays: 8:00 - 10:00</tspan></text>
      <text id="Working_Hours" data-name="Working Hours" transform="translate(1175 8270)" fill="#fff" font-size="34" font-family="SegoeUI, Segoe UI"><tspan x="0" y="0">Working Hours</tspan></text>
      <g id="Path_48" data-name="Path 48" transform="translate(1175 8123)" fill="#fff">
        <path d="M120,110h0Z" stroke="none"/>
        <path d="M 0 110 L 120 110 L 0 110 Z" stroke="none" fill="#707070"/>
      </g>
      <g id="Path_47" data-name="Path 47" transform="translate(1214 8279)" fill="#fff">
        <path d="M74,30h0Z" stroke="none"/>
        <path d="M 0 30 L 74 30 L 0 30 Z" stroke="none" fill="#707070"/>
      </g>
      <g id="Path_46" data-name="Path 46" transform="translate(1212 8408)" fill="#fff">
        <path d="M83,34h0Z" stroke="none"/>
        <path d="M 0 34 L 83 34 L 0 34 Z" stroke="none" fill="#707070"/>
      </g>
    </g>
    <g id="_1" data-name="1">
      <text id="The_web_has_changed_a_lot_since_we_posted_our_first_article_back_in_2007._The_team_at_Mattin-Lassi_Group_has_changed_too_as_have_the_things_that_we_bring_to_our_community_conferences_books_and_our_membership_added_to_the_online_magazine._One_thing_th" data-name="The web has changed a lot since we posted our first article back in 2007. The team at Mattin-Lassi Group has changed too, as have the things that we bring to our community 
conferences, books, and our membership added to the online magazine. 

One thing th" transform="translate(373.69 8312.388)" fill="#c2d1e2" font-size="16" font-family="SegoeUI, Segoe UI"><tspan x="0" y="17">The web has changed a lot since we posted our </tspan><tspan x="0" y="45">first article back in 2007. The team at Mattin-</tspan><tspan x="0" y="73">Lassi Group has changed too, as have the </tspan><tspan x="0" y="101">things that we bring to our community </tspan><tspan x="0" y="129">conferences, books, and our membership </tspan><tspan x="0" y="157">added to the online magazine. </tspan><tspan x="0" y="185"></tspan><tspan x="0" y="213">One thing that hasn’t changed is that we’re a </tspan><tspan x="0" y="241">small team — with most of us not working</tspan></text>
      <text id="OmniVus." transform="translate(372 8275)" fill="#fff" font-size="40" font-family="SegoeUI, Segoe UI" letter-spacing="-0.03em"><tspan x="0" y="0">OmniVus.</tspan></text>
      <g id="Path_43" data-name="Path 43" transform="translate(386 8121)" fill="#fff">
        <path d="M147,119h0Z" stroke="none"/>
        <path d="M 0 119 L 147 119 L 0 119 Z" stroke="none" fill="#707070"/>
      </g>
      <g id="Path_44" data-name="Path 44" transform="translate(445 8285)" fill="#fff">
        <path d="M76,27h0Z" stroke="none"/>
        <path d="M 0 27 L 76 27 L 0 27 Z" stroke="none" fill="#707070"/>
      </g>
      <g id="Path_45" data-name="Path 45" transform="translate(460 8478)" fill="#fff">
        <path d="M73,37h0Z" stroke="none"/>
        <path d="M 0 37 L 73 37 L 0 37 Z" stroke="none" fill="#707070"/>
      </g>
    </g>
    <g id="bluegreen">
      <circle id="bg-2" data-name="bg" cx="53" cy="53" r="53" transform="translate(1572 8560)" fill="#006de8"/>
      <circle id="bg-3" data-name="bg" cx="16.5" cy="16.5" r="16.5" transform="translate(1548 8536)" fill="#00e8cf"/>
    </g>
    <circle id="bg-4" data-name="bg" cx="375" cy="375" r="375" transform="translate(-379 8364)" fill="#006de8" opacity="0.4"/>
  </g>
</svg>
